<svg xmlns="http://www.w3.org/2000/svg" version="1.1" xmlnsXlink="http://www.w3.org/1999/xlink" xmlnsSvgjs="http://svgjs.dev/svgjs" viewBox="0 0 40 2"><g transform="matrix(1,0,0,1,2.470165421582577,0.3432682358162019)"><g><path d=" M 0.257080078125 1.273681640625 Q 0.186767578125 1.273681640625 0.13916015625 1.251708984375 Q 0.091552734375 1.229736328125 0.0626220703125 1.1920166015625 Q 0.03369140625 1.154296875 0.021240234375 1.103759765625 Q 0.0087890625 1.05322265625 0.0087890625 0.996826171875 Q 0.0087890625 0.957275390625 0.013916015625 0.9078369140625 Q 0.01904296875 0.8583984375 0.029296875 0.80859375 L 0.180908203125 0.80859375 L 0.1787109375 0.9609375 Q 0.1787109375 1.00927734375 0.18310546875 1.0418701171875 Q 0.1875 1.074462890625 0.1966552734375 1.0938720703125 Q 0.205810546875 1.11328125 0.2200927734375 1.1217041015625 Q 0.234375 1.130126953125 0.2548828125 1.130126953125 Q 0.271728515625 1.130126953125 0.2852783203125 1.12353515625 Q 0.298828125 1.116943359375 0.308349609375 1.1004638671875 Q 0.31787109375 1.083984375 0.322998046875 1.0557861328125 Q 0.328125 1.027587890625 0.328125 0.985107421875 L 0.330322265625 0.010986328125 L 0.52001953125 0.010986328125 L 0.52001953125 0.958740234375 Q 0.52001953125 1.055419921875 0.498046875 1.116943359375 Q 0.47607421875 1.178466796875 0.4390869140625 1.2132568359375 Q 0.402099609375 1.248046875 0.3548583984375 1.2608642578125 Q 0.3076171875 1.273681640625 0.257080078125 1.273681640625 Z M 1.013671875 1.27294921875 Q 0.983642578125 1.27294921875 0.948486328125 1.2681884765625 Q 0.913330078125 1.263427734375 0.87890625 1.248046875 Q 0.844482421875 1.232666015625 0.8126220703125 1.2044677734375 Q 0.78076171875 1.17626953125 0.7562255859375 1.130126953125 Q 0.731689453125 1.083984375 0.717041015625 1.0162353515625 Q 0.702392578125 0.948486328125 0.702392578125 0.854736328125 L 0.702392578125 0.41162109375 Q 0.702392578125 0.317138671875 0.7174072265625 0.2501220703125 Q 0.732421875 0.18310546875 0.75732421875 0.1373291015625 Q 0.7822265625 0.091552734375 0.8140869140625 0.064453125 Q 0.845947265625 0.037353515625 0.8807373046875 0.0230712890625 Q 0.91552734375 0.0087890625 0.949951171875 0.00439453125 Q 0.984375 0 1.013671875 0 Q 1.04150390625 0 1.0755615234375 0.0040283203125 Q 1.109619140625 0.008056640625 1.1436767578125 0.0216064453125 Q 1.177734375 0.03515625 1.2099609375 0.0618896484375 Q 1.2421875 0.088623046875 1.26708984375 0.1343994140625 Q 1.2919921875 0.18017578125 1.3070068359375 0.2479248046875 Q 1.322021484375 0.315673828125 1.322021484375 0.41162109375 L 1.322021484375 0.854736328125 Q 1.322021484375 0.94775390625 1.306640625 1.0147705078125 Q 1.291259765625 1.081787109375 1.266357421875 1.1282958984375 Q 1.241455078125 1.1748046875 1.2088623046875 1.2030029296875 Q 1.17626953125 1.231201171875 1.1422119140625 1.2469482421875 Q 1.108154296875 1.2626953125 1.074462890625 1.267822265625 Q 1.040771484375 1.27294921875 1.013671875 1.27294921875 Z M 1.013671875 1.130126953125 Q 1.04150390625 1.130126953125 1.0623779296875 1.12060546875 Q 1.083251953125 1.111083984375 1.0968017578125 1.087646484375 Q 1.1103515625 1.064208984375 1.1173095703125 1.0257568359375 Q 1.124267578125 0.9873046875 1.124267578125 0.9287109375 L 1.124267578125 0.359619140625 Q 1.124267578125 0.299560546875 1.1173095703125 0.25927734375 Q 1.1103515625 0.218994140625 1.0968017578125 0.1944580078125 Q 1.083251953125 0.169921875 1.0623779296875 0.15966796875 Q 1.04150390625 0.1494140625 1.013671875 0.1494140625 Q 0.985107421875 0.1494140625 0.9638671875 0.15966796875 Q 0.942626953125 0.169921875 0.9287109375 0.1944580078125 Q 0.914794921875 0.218994140625 0.9078369140625 0.25927734375 Q 0.90087890625 0.299560546875 0.90087890625 0.359619140625 L 0.90087890625 0.9287109375 Q 0.90087890625 0.9873046875 0.9078369140625 1.0257568359375 Q 0.914794921875 1.064208984375 0.9287109375 1.087646484375 Q 0.942626953125 1.111083984375 0.9638671875 1.12060546875 Q 0.985107421875 1.130126953125 1.013671875 1.130126953125 Z M 1.5087890625 0.010986328125 L 1.70068359375 0.010986328125 Q 1.7431640625 0.010986328125 1.78857421875 0.013916015625 Q 1.833984375 0.016845703125 1.877197265625 0.0263671875 Q 1.92041015625 0.035888671875 1.959228515625 0.0545654296875 Q 1.998046875 0.0732421875 2.0269775390625 0.104736328125 Q 2.055908203125 0.13623046875 2.0731201171875 0.1827392578125 Q 2.09033203125 0.229248046875 2.09033203125 0.29443359375 L 2.09033203125 0.355224609375 Q 2.09033203125 0.405029296875 2.0760498046875 0.44677734375 Q 2.061767578125 0.488525390625 2.038330078125 0.5203857421875 Q 2.014892578125 0.55224609375 1.98486328125 0.5731201171875 Q 1.954833984375 0.593994140625 1.92333984375 0.601318359375 L 1.92333984375 0.607177734375 Q 2.016357421875 0.6240234375 2.0635986328125 0.6954345703125 Q 2.11083984375 0.766845703125 2.11083984375 0.878173828125 L 2.11083984375 0.94189453125 Q 2.11083984375 1.010009765625 2.0958251953125 1.0601806640625 Q 2.080810546875 1.1103515625 2.0537109375 1.1458740234375 Q 2.026611328125 1.181396484375 1.9892578125 1.2041015625 Q 1.951904296875 1.226806640625 1.9072265625 1.2396240234375 Q 1.862548828125 1.25244140625 1.81201171875 1.2572021484375 Q 1.761474609375 1.261962890625 1.7080078125 1.261962890625 L 1.5087890625 1.261962890625 L 1.5087890625 0.010986328125 Z M 1.7314453125 0.54638671875 Q 1.76953125 0.54638671875 1.801025390625 0.5372314453125 Q 1.83251953125 0.528076171875 1.8548583984375 0.5086669921875 Q 1.877197265625 0.4892578125 1.8892822265625 0.4581298828125 Q 1.9013671875 0.427001953125 1.9013671875 0.383056640625 L 1.9013671875 0.331787109375 Q 1.9013671875 0.287841796875 1.892578125 0.254150390625 Q 1.8837890625 0.220458984375 1.8636474609375 0.197021484375 Q 1.843505859375 0.173583984375 1.8109130859375 0.1614990234375 Q 1.7783203125 0.1494140625 1.7314453125 0.1494140625 L 1.69482421875 0.1494140625 L 1.69482421875 0.54638671875 L 1.7314453125 0.54638671875 Z M 1.7490234375 1.130126953125 Q 1.787109375 1.130126953125 1.8182373046875 1.1202392578125 Q 1.849365234375 1.1103515625 1.8717041015625 1.0894775390625 Q 1.89404296875 1.068603515625 1.9061279296875 1.036376953125 Q 1.918212890625 1.004150390625 1.918212890625 0.960205078125 L 1.918212890625 0.86279296875 Q 1.918212890625 0.81884765625 1.909423828125 0.7847900390625 Q 1.900634765625 0.750732421875 1.8804931640625 0.7276611328125 Q 1.8603515625 0.70458984375 1.828125 0.6925048828125 Q 1.7958984375 0.680419921875 1.7490234375 0.680419921875 L 1.69482421875 0.680419921875 L 1.69482421875 1.130126953125 L 1.7490234375 1.130126953125 Z M 2.282958984375 0.010986328125 L 2.76123046875 0.010986328125 L 2.76123046875 0.160400390625 L 2.47265625 0.160400390625 L 2.47265625 0.53466796875 L 2.698974609375 0.53466796875 L 2.698974609375 0.68408203125 L 2.47265625 0.68408203125 L 2.47265625 1.261962890625 L 2.282958984375 1.261962890625 L 2.282958984375 0.010986328125 Z M 2.895263671875 0.010986328125 L 3.0849609375 0.010986328125 L 3.0849609375 1.112548828125 L 3.343505859375 1.112548828125 L 3.343505859375 1.261962890625 L 2.895263671875 1.261962890625 L 2.895263671875 0.010986328125 Z M 3.747802734375 1.27294921875 Q 3.7177734375 1.27294921875 3.6826171875 1.2681884765625 Q 3.6474609375 1.263427734375 3.613037109375 1.248046875 Q 3.57861328125 1.232666015625 3.5467529296875 1.2044677734375 Q 3.514892578125 1.17626953125 3.4903564453125 1.130126953125 Q 3.4658203125 1.083984375 3.451171875 1.0162353515625 Q 3.4365234375 0.948486328125 3.4365234375 0.854736328125 L 3.4365234375 0.41162109375 Q 3.4365234375 0.317138671875 3.4515380859375 0.2501220703125 Q 3.466552734375 0.18310546875 3.491455078125 0.1373291015625 Q 3.516357421875 0.091552734375 3.5482177734375 0.064453125 Q 3.580078125 0.037353515625 3.6148681640625 0.0230712890625 Q 3.649658203125 0.0087890625 3.68408203125 0.00439453125 Q 3.718505859375 0 3.747802734375 0 Q 3.775634765625 0 3.8096923828125 0.0040283203125 Q 3.84375 0.008056640625 3.8778076171875 0.0216064453125 Q 3.911865234375 0.03515625 3.944091796875 0.0618896484375 Q 3.976318359375 0.088623046875 4.001220703125 0.1343994140625 Q 4.026123046875 0.18017578125 4.0411376953125 0.2479248046875 Q 4.05615234375 0.315673828125 4.05615234375 0.41162109375 L 4.05615234375 0.854736328125 Q 4.05615234375 0.94775390625 4.040771484375 1.0147705078125 Q 4.025390625 1.081787109375 4.00048828125 1.1282958984375 Q 3.9755859375 1.1748046875 3.9429931640625 1.2030029296875 Q 3.910400390625 1.231201171875 3.8763427734375 1.2469482421875 Q 3.84228515625 1.2626953125 3.80859375 1.267822265625 Q 3.77490234375 1.27294921875 3.747802734375 1.27294921875 Z M 3.747802734375 1.130126953125 Q 3.775634765625 1.130126953125 3.7965087890625 1.12060546875 Q 3.8173828125 1.111083984375 3.8309326171875 1.087646484375 Q 3.844482421875 1.064208984375 3.8514404296875 1.0257568359375 Q 3.8583984375 0.9873046875 3.8583984375 0.9287109375 L 3.8583984375 0.359619140625 Q 3.8583984375 0.299560546875 3.8514404296875 0.25927734375 Q 3.844482421875 0.218994140625 3.8309326171875 0.1944580078125 Q 3.8173828125 0.169921875 3.7965087890625 0.15966796875 Q 3.775634765625 0.1494140625 3.747802734375 0.1494140625 Q 3.71923828125 0.1494140625 3.697998046875 0.15966796875 Q 3.6767578125 0.169921875 3.662841796875 0.1944580078125 Q 3.64892578125 0.218994140625 3.6419677734375 0.25927734375 Q 3.635009765625 0.299560546875 3.635009765625 0.359619140625 L 3.635009765625 0.9287109375 Q 3.635009765625 0.9873046875 3.6419677734375 1.0257568359375 Q 3.64892578125 1.064208984375 3.662841796875 1.087646484375 Q 3.6767578125 1.111083984375 3.697998046875 1.12060546875 Q 3.71923828125 1.130126953125 3.747802734375 1.130126953125 Z M 4.1630859375 0.010986328125 L 4.3447265625 0.010986328125 L 4.428955078125 0.766845703125 L 4.4384765625 0.943359375 L 4.456787109375 0.943359375 L 4.474365234375 0.744873046875 L 4.609130859375 0.010986328125 L 4.7607421875 0.010986328125 L 4.8896484375 0.744873046875 L 4.904296875 0.943359375 L 4.92333984375 0.943359375 L 4.93212890625 0.766845703125 L 5.009033203125 0.010986328125 L 5.19140625 0.010986328125 L 5.016357421875 1.261962890625 L 4.82373046875 1.261962890625 L 4.720458984375 0.66064453125 L 4.688232421875 0.399169921875 L 4.673583984375 0.399169921875 L 4.64208984375 0.66064453125 L 4.53369140625 1.261962890625 L 4.34326171875 1.261962890625 L 4.1630859375 0.010986328125 Z" fill="#212121" fill-rule="nonzero"></path></g><g></g><g clip-path="url(&quot;#SvgjsClipPath1001&quot;)"><path d=" M -2.1576946633288157 -0.030797477562440556 L -0.3999999999999999 -0.030797477562440556 L -0.3999999999999999 1.2927603681874407 L -2.1576946633288157 1.2927603681874407 Z" fill="#769687" transform="matrix(1,0,0,1,0,0)" fill-rule="nonzero" mask="url(#maskedText)"></path></g></g><defs><clipPath id="SvgjsClipPath1001"><path d=" M -2.1576946633288157 -0.030797477562440556 h 1.7576946633288157 v 1.3235578457498811 h -1.7576946633288157 Z"></path></clipPath><mask id="maskedText"><path d=" M -0.4282668395386766 0.7640755428605132 C -0.43135193303310326 0.7727682991738687 -0.434375500446444 0.7814698449273793 -0.4368189648095513 0.7882816610475517 C -0.4503986498491206 0.7940826915498919 -0.46470785842156026 0.7869105083833621 -0.47354124577739665 0.7992333034807577 L -0.5058863855480216 0.7987938314730048 C -0.5074684847759328 0.7785781191163642 -0.5090505840038437 0.758274512358173 -0.5105623677105142 0.7383400620864943 C -0.5094812665714421 0.7369601199821497 -0.5086902169574865 0.7352198108314475 -0.5076794313396544 0.735000074827571 C -0.5010697723430482 0.7336992376846221 -0.4942403773425659 0.7333300811981094 -0.4877713493884408 0.7314842987655467 C -0.48297284364604764 0.7295672183770826 -0.4783961430533312 0.7271359382811452 -0.4741213488276308 0.7242330106376212 C -0.4647078584215605 0.7174915100386892 -0.4581597255060399 0.7097392238219253 -0.46197434253333647 0.696616589670419 C -0.4628661253048032 0.693956124288486 -0.4628320518766509 0.6910722732330584 -0.4618776586916311 0.6884336208860571 C -0.46092877102143226 0.6858030143454519 -0.4591121430218297 0.6835740799909906 -0.4567270467607649 0.6821140134145682 C -0.44889565558260536 0.6787037106344045 -0.44867591957872865 0.6722522615605897 -0.45003828280276337 0.6651503939153002 C -0.44946696919268425 0.6568883201695427 -0.4489659711038456 0.6485471414623898 -0.44838586805361214 0.6402850677166323 C -0.4488253400613653 0.6340533546466939 -0.44917691766756773 0.6278128521366005 -0.44953728471392496 0.6215811390666622 C -0.44953728471392496 0.6136706429271072 -0.4473135563546946 0.6041780475596411 -0.4507590168954785 0.5982363860148198 C -0.45563147430024986 0.5917608964338436 -0.4626742755580382 0.5872581218591921 -0.47059678332545163 0.5855532238710667 C -0.4824587545700796 0.583246344318358 -0.4944684768836578 0.5817778040501288 -0.5065368041194958 0.5811585037935362 C -0.5108690720136446 0.5781768066200932 -0.5153807216417399 0.5754645331937043 -0.5200461736378257 0.5730370610902595 C -0.5383721563611281 0.564625566861866 -0.5385918923650046 0.564484935819385 -0.5372207397008153 0.5378001955086193 L -0.5251440489277603 0.5501845166871004 C -0.5168982454605056 0.5402506680114144 -0.5132192667110704 0.5273024496547729 -0.5150098244289747 0.5145169685378624 C -0.5112743123630739 0.5000143922820115 -0.5221995864758151 0.48902759208818514 -0.5242826837925645 0.473628492936518 L -0.5064576991581005 0.43955183345534593 C -0.4974748913196283 0.43919146640898843 -0.48749008730347865 0.44173161461380106 -0.4815220574381922 0.43157981123470546 C -0.47224919807460286 0.4191075956546738 -0.4728293011248368 0.40446438835634185 -0.4726095651209601 0.39004091706188654 C -0.4638201249658993 0.3834400475054357 -0.46628995764947123 0.3733409807672704 -0.46477817394280074 0.36444606733034857 C -0.4605137006366955 0.36212440194768236 -0.4569801526402446 0.3586608553327292 -0.45457363392277483 0.3544436844338891 C -0.45216447826218054 0.35021174800051325 -0.4509692342756815 0.34539731738822904 -0.4511193839418357 0.34053000066842726 C -0.4531321657373448 0.32145691553194455 -0.44392962189499574 0.3079035988128403 -0.43487649853528265 0.29355044303962546 C -0.43020130759846187 0.2862354051018004 -0.4318529931978341 0.2765650523183794 -0.438691115562579 0.2712164756056151 L -0.44731355635469416 0.25672268878991933 C -0.4463730862581028 0.25346180649239164 -0.4437977802926696 0.24947140066199391 -0.44479977647034663 0.24705430461935207 C -0.44663135229477624 0.24284885247701266 -0.44940027258701654 0.23911787518855426 -0.45289485085315806 0.23614660938692117 C -0.4563726991876902 0.23318161209755467 -0.46048720133222587 0.2310581921311495 -0.4649188049852815 0.22994126463744805 C -0.4699551541941316 0.22581022776456933 -0.47476297795894995 0.22124850832409257 -0.48008058925276176 0.21763604842036247 C -0.4883971216888996 0.21317513905131816 -0.4948281254576148 0.20586732205649472 -0.4981956254123432 0.1970511795772093 C -0.4971145242732704 0.19625134052309876 -0.4952511629603973 0.19560092195162423 -0.4950314269565208 0.19458134689363712 C -0.4883514524386743 0.16036405636998413 -0.4883514524386743 0.16036405636998413 -0.49927672655141553 0.132598214920146 C -0.5017905064357628 0.12629618632896716 -0.5039439192737529 0.11991505277639276 -0.5064576991581005 0.11360423474505887 C -0.49415248294101466 0.10135175516890366 -0.49640257962071055 0.08714801987832486 -0.500929141300567 0.07264544362247398 C -0.5021508734821207 0.06880445827471228 -0.5056666495441451 0.06460310588059306 -0.504805284408949 0.06148285462554634 C -0.5006390897754502 0.04654080636194241 -0.4953917940028787 0.03182728354237008 -0.4904345497554241 0.015777765819228434 L -0.5240014217076023 -0.0013352741626756481 C -0.5448456913138813 -0.010486681643485873 -0.5667027034014096 -0.01713111890335539 -0.5891135943762955 -0.021129093391873355 C -0.5984738173365558 -0.029131837774794417 -0.6112453105805005 -0.031860082706501924 -0.6230584122551417 -0.02838038151979877 L -0.6643687809839287 -0.02838038151979877 C -0.6792493031664475 -0.028811064087396754 -0.6952021370478831 -0.03316183696415201 -0.7086411910449717 -0.02903080009127329 C -0.7324342055447222 -0.02177951196334782 -0.7567282181333113 -0.02308913854645195 -0.7805124431929067 -0.01931846871993073 C -0.7964526997747473 -0.020601132123389432 -0.8124953293017465 -0.019451207819588312 -0.8280896827522529 -0.015908165939767016 C -0.8445523041626821 -0.012717599163479781 -0.8622981838357505 -0.015908165939767016 -0.8794112238176547 -0.012937335167356345 C -0.8814943211344041 -0.014457908314181922 -0.8837180494936346 -0.017428739086592565 -0.8857308312891435 -0.0173320552448869 C -0.9030577596779191 -0.01800841646901491 -0.9196006993020235 -0.01008398983261255 -0.9299329258289459 0.0038417060886553334 C -0.9324717296143896 0.0034055955561692886 -0.9350517291732701 0.003258167009947549 -0.9376236859646246 0.0034022340809023166 C -0.9433719798260344 -0.003849054047023154 -0.9489796426449635 0.0021013969379532482 -0.9546576209851328 0.0034022340809023166 C -0.9762181176854977 0.0034022340809023166 -0.9977786143858628 0.003912021609895844 -1.0198401091750662 0.0043427041774938835 C -1.030737852284218 0.003115393152974655 -1.0416926302422418 0.006099343865421325 -1.0504625186752992 0.012683882884646891 C -1.054742592406848 0.016165031547298314 -1.060644841777775 0.01686987987797134 -1.0656243029427794 0.014494507556589487 C -1.0799950375963046 0.0090626335407617 -1.0909203117090454 0.016885235278766092 -1.1037177365748145 0.022176478252112913 C -1.1165151614405835 0.027467721225459707 -1.1328986778896173 0.017104971282642628 -1.1453269462688738 0.029427766380038328 L -1.1702713774289373 0.03667905450796377 C -1.1853628461751773 0.030737392963142457 -1.2003839994001768 0.02587683255739362 -1.214218578204243 0.03979930576301047 L -1.214218578204243 0.055339035957158556 C -1.214218578204243 0.05613887501126913 -1.216371991042233 0.05685960910398416 -1.217523407702546 0.05758913263685422 C -1.2457726683609125 0.03540458568547991 -1.2457726683609125 0.03540458568547991 -1.269706313903144 0.045697020107056535 C -1.2874857282756293 0.044989524978721634 -1.3052495254480194 0.04744473232789598 -1.3221704821887037 0.05294830823498192 C -1.3404142526338292 0.05725451731414083 -1.3589075944419557 0.06042480448124826 -1.3775439551655886 0.06244090360244789 L -1.4458994312514994 0.07418359564960965 C -1.4660800566616081 0.07639905769391298 -1.4861343770715134 0.0796436566367678 -1.5059840441514993 0.0839047164611076 C -1.516273046884124 0.08720050273732716 -1.527015481011013 0.08886139812966784 -1.5378193963931288 0.08882680294794153 C -1.57029637776608 0.08718317763894506 -1.598897216030649 0.09928623673246424 -1.626812477963123 0.1138591285095556 C -1.6436969925009957 0.1138591285095556 -1.661020979046621 0.1225606742630661 -1.6771232334106931 0.11122229646303725 C -1.6910632854966199 0.1141228117142074 -1.706585436810458 0.1107125089340437 -1.7185918120622716 0.12158504640585431 C -1.7209256164235467 0.12169172838009186 -1.7232290751226833 0.12215716340681576 -1.7254212070627541 0.12296498851019888 L -1.7422793532801613 0.12296498851019888 C -1.7490787473793683 0.12205969738535474 -1.7559681441824018 0.12205969738535474 -1.7627675382816088 0.12296498851019894 C -1.7830359872791797 0.12818591596230522 -1.8027946487477573 0.12521508518989455 -1.8231334132665686 0.12384393252570504 C -1.8408038544132732 0.12233864599024921 -1.8582540744793312 0.1188869217170476 -1.8751668989845307 0.11355149810412843 C -1.8829168555583924 0.11089602436185152 -1.8908142301537778 0.10869203762044147 -1.8988192824417998 0.10695062854767766 C -1.902165939326418 0.10608771559549186 -1.9057017459297987 0.10632816277514634 -1.9089007702996552 0.10763620487977231 C -1.9121145855158386 0.10894544018655607 -1.9148271567701383 0.1112454296609737 -1.916644267076264 0.11420191667560303 C -1.923825239682949 0.11710243192677315 -1.9247657097795405 0.12387030084617025 -1.925987441961094 0.13029538159951992 C -1.9323589475764158 0.13165956620613137 -1.9384714612051404 0.13403335790660692 -1.94409368868052 0.13732693372356888 C -1.9588304496784743 0.14970833819911122 -1.967157433406543 0.1681046364896544 -1.9667352865199574 0.18734763764602178 C -1.9658502767803356 0.2021130884753309 -1.9679425953669378 0.2169057808826085 -1.9728878946285002 0.23084657697341932 C -1.9747290523442964 0.2387553322286197 -1.9754772613584224 0.24687916686025435 -1.9751116229877308 0.25499116907937225 C -1.9943575325704401 0.26512878630297365 -2.015896397060755 0.27012141879447354 -2.0376397002508355 0.26948495589506805 C -2.0429223910267216 0.26918543378330406 -2.0482210134453087 0.2696262460336499 -2.05338158756855 0.27079458247817223 C -2.0690092121642487 0.2750750398336869 -2.084531363478087 0.2800938101622269 -2.1024969791550316 0.2856223680197604 C -2.1073839078812457 0.2903335079428731 -2.1131322017426557 0.3001161548354561 -2.1213239599671727 0.3029463545653859 C -2.140520097265826 0.3094505402801311 -2.1470594407411916 0.3258340567291651 -2.1576946633288157 0.3401872125023798 C -2.154319518309272 0.3490381787385264 -2.1513662664171718 0.35657072895141373 -2.1484921194864666 0.3641823841256967 L -2.1484921194864666 0.3726378255548655 C -2.149810251917745 0.37937104868435556 -2.1466080189829335 0.3861811307257207 -2.1405816233469115 0.38946081401165256 C -2.1396497461627604 0.3920402080719195 -2.1383692568711843 0.394479939401135 -2.13677579575977 0.3967121021395781 C -2.115127939810376 0.41803570331085993 -2.100946822857084 0.4457813669151268 -2.096344371046489 0.4758170635351282 C -2.096344371046489 0.47806716021482387 -2.093039541548186 0.47994810040800706 -2.091316811277794 0.4819696716436711 L -2.09073670822756 0.49814224152898356 C -2.093470224115784 0.506544946317222 -2.0962740555252486 0.5149564405456155 -2.0990075714134724 0.523367934774009 C -2.104395498228525 0.540182133790641 -2.1107942106614095 0.556715070722311 -2.114890089773668 0.574118162229332 C -2.11881565244161 0.5861083988195377 -2.1165083954068704 0.5992663560805108 -2.108737481665125 0.6092056073283362 C -2.1018341428774 0.6178687968659344 -2.0980283956412586 0.6285929594028979 -2.0979264702744 0.639669806905778 C -2.0979264702744 0.6430801096859418 -2.0935317501968695 0.6461212559795928 -2.0912377063163983 0.6493381910763452 C -2.0914578251367746 0.6519704293248677 -2.0914578251367746 0.6546164489673779 -2.0912377063163983 0.6572486872159002 C -2.0939215005225327 0.6591012774142915 -2.095971132620558 0.6617338887018752 -2.097109052339979 0.6647900268689427 C -2.0982519649048266 0.6678531772081969 -2.0984358977330495 0.6711915580404446 -2.097636418749283 0.6743617271978043 L -2.104395498228525 0.6888555140135001 C -2.094200548484362 0.7081576643779351 -2.081110889349319 0.7257854277103859 -2.0655813305037753 0.7411263146156484 C -2.055666842008866 0.7599796637482548 -2.039705218687275 0.7756336566644187 -2.039274536119677 0.7991366196390521 C -2.039274536119677 0.8053683327089906 -2.0298610457136066 0.8113890992152075 -2.0249038014661522 0.8174713918025097 C -2.022460337103045 0.8207410635401925 -2.0206672913114128 0.8253818879420648 -2.017714039419312 0.8270430921313712 C -2.005744205191596 0.8339661144384024 -1.9963575015897301 0.8446025270996884 -1.990976562467616 0.8573402923458668 L -2.003773987333385 0.866261574103254 L -2.01599130914892 0.8752531713818815 C -2.0208818009340983 0.8820646487066107 -2.0293721336040296 0.8852904905526671 -2.0375518058492847 0.8834449296063985 C -2.048453964663994 0.8831672904652765 -2.0590922448634914 0.8868204946041657 -2.0675237967780435 0.8937373640279752 C -2.0770632341136737 0.9011402066916057 -2.0860250757249017 0.9092587536987604 -2.09433158925098 0.9180225871764093 C -2.0970063498486526 0.9226021806858992 -2.0987953719202634 0.9276442412243895 -2.0996052533440164 0.9328855304786176 C -2.108447430140008 0.933685369532728 -2.118511339117553 0.9314352728530323 -2.1237498454499697 0.9419474432784857 C -2.128285196569981 0.9536901353256474 -2.126553676859434 0.9613721060211707 -2.116067874754446 0.975347315867718 C -2.1131146228623456 0.9834687585709946 -2.1101701604104 0.9915902012742709 -2.107155382437214 0.9997819594987878 C -2.0999656203903743 1.0129045936502943 -2.081666005987537 1.0086241362947794 -2.0738785620101527 1.0215270344424092 C -2.0660911180327686 1.034429932590039 -2.0492681295759816 1.031529417338869 -2.0343260813123774 1.0388510209880348 C -2.0358378650190483 1.060604885371811 -2.019093981523657 1.0672760704495023 -2.0016996794567907 1.0733583630368049 C -1.9945099174099505 1.0758985112416175 -1.9873289448032656 1.0677067530171005 -1.988515519224199 1.058284473170875 C -1.9891662711079956 1.0556035313265064 -1.9901063988057506 1.0530012342822508 -1.9913193506336635 1.0505233975139558 C -1.97749956585914 1.035731365805506 -1.9685453474110484 1.017059105547358 -1.96566297482104 0.997022075290099 C -1.9650213456897205 0.9923812508882265 -1.960635415052345 0.9881798984941073 -1.958042530206602 0.9837588100961114 C -1.9550980677546566 0.9862989583009243 -1.952443656827828 0.9910100982240371 -1.9492530900515408 0.9910100982240371 C -1.9286945895288528 0.993910613475207 -1.9235879247987622 1.0072441941904349 -1.924959077462952 1.0255174402728071 L -1.9654959754580938 1.0545225927845088 C -1.9567944297045834 1.0623539839626683 -1.9501144551867369 1.0683659610287302 -1.9439354787577288 1.0741669915310703 C -1.9370643038519477 1.0690951611997652 -1.9298581120022917 1.0644936523862318 -1.9223661926172086 1.0603939388080896 C -1.9135767524621476 1.056403532977692 -1.9051213110329788 1.0698162186543154 -1.8949167710129529 1.0616244604297982 C -1.8940378269974467 1.0583635781322707 -1.8929743047386842 1.054381961742028 -1.8919723085610074 1.0506112919155066 C -1.8859919633173827 1.0479657493577204 -1.8797531983562337 1.045948018480295 -1.8733562743125878 1.04459052540929 C -1.8673179289260609 1.0439401068378151 -1.8608489009719358 1.0518418135372152 -1.8549599760680449 1.0458210470309983 C -1.847770214021205 1.0385697589030727 -1.8530175097937764 1.0313272602153025 -1.8549599760680449 1.0234255535159025 C -1.8554872877713173 1.0196733192489238 -1.8554872877713173 1.0158657783033174 -1.8549599760680449 1.012113544036339 L -1.8425932337698738 1.008993292781292 C -1.8385676701788558 1.0227663455042728 -1.8385676701788558 1.0227663455042728 -1.82980459834426 1.016903788920847 L -1.817297225003608 1.0087120306963302 C -1.8174073105379234 1.0127077126823456 -1.818109311399118 1.0166649833597972 -1.8193803223203573 1.0204547227434917 C -1.8244281816702126 1.028511676506548 -1.8245940283998325 1.038702788810332 -1.8198110048879554 1.046919727050381 C -1.8184686391028682 1.0506887841564696 -1.8177876929057288 1.054661465900478 -1.8177982230924465 1.0586624190975422 C -1.8211171695724764 1.0584865495486968 -1.8244358363041395 1.059013702386939 -1.8275369227842542 1.0602093605648333 C -1.8306432836736235 1.0614105483929552 -1.833463691385638 1.063248903313525 -1.8358165754103217 1.0656060768200408 C -1.8406065984206932 1.0703957738704315 -1.8431589066702372 1.0769807291542552 -1.8428481275343707 1.083747481300087 C -1.854124979253314 1.0880982541768425 -1.865630356416289 1.0920886600072401 -1.8767665770927515 1.0970107464940742 C -1.887902797769214 1.1019328329809086 -1.903134897557935 1.1003507337529974 -1.909902766477332 1.1145896268041966 C -1.903433738523207 1.1177098780592432 -1.895523242383652 1.1192304512060687 -1.891787730317751 1.1239415911291815 C -1.8867043746553447 1.1313905576207668 -1.8824846958215073 1.1393934984698473 -1.8792100414558586 1.1477961317100174 C -1.8722224936992444 1.1466836228277086 -1.865102932840326 1.1466836228277086 -1.8581153850837118 1.1477961317100174 C -1.8476456030392425 1.1519897111282507 -1.835668255131926 1.1490774470482221 -1.8282928146375894 1.140544843582092 C -1.8218941022047048 1.134673497558511 -1.815565705293061 1.140114161014494 -1.8092460978215719 1.1417753652038005 L -1.7774019561397854 1.1499671234283173 C -1.766986469556038 1.1438145153197747 -1.7567028245746166 1.1374333817672004 -1.7462170224696285 1.131509299102689 C -1.7405219396598264 1.1274428035368138 -1.7331164856495482 1.126646267304385 -1.7266868864450828 1.1294086229056295 C -1.7047660226983603 1.139850477809842 -1.6907468656510378 1.1294086229056295 -1.6798215915382968 1.111065061302017 C -1.6791799624069774 1.1099839601629444 -1.6775978631790662 1.1094741726339508 -1.6764464465187534 1.1087534385412359 C -1.6734978509267489 1.1104826415668965 -1.671150903495129 1.113075021409666 -1.6697225248001315 1.1161805154722624 C -1.6682829809327135 1.1192924431443214 -1.6678202458984444 1.1227675526069778 -1.6683953193367174 1.1261477406081015 C -1.6690457379081918 1.1338297113036249 -1.6699071030433879 1.1415204714393035 -1.6706278371361027 1.148762970127074 C -1.6554572634284672 1.157104148834227 -1.6411568442961828 1.1642763320007568 -1.6265663736387814 1.161384606189742 C -1.604214827324461 1.1569898861122112 -1.5826191728634758 1.1488420750884696 -1.5605928358348926 1.1423115210532593 C -1.5596643414500602 1.1500553442042338 -1.5606761926495623 1.1579085176929074 -1.5635372982868379 1.1651640654564182 C -1.5663737229487713 1.1724390874095352 -1.5709953247247224 1.1788833352750205 -1.5769763522839266 1.1839031518670087 C -1.5921469259915622 1.1962083680840938 -1.6129163730779714 1.1938352192422272 -1.629519625530882 1.2023170289918614 C -1.630811673233676 1.212468832370957 -1.6320334054152295 1.2216537973329957 -1.633255137596783 1.2313221815035633 C -1.6288839758277278 1.2349860601701397 -1.624060080856528 1.2380729984707544 -1.6189019818235681 1.2405071464656023 C -1.6138686183106394 1.2426468391387837 -1.6082065572164113 1.2427758083081524 -1.603080989544458 1.2408675135119593 C -1.5854054253926302 1.2297752400362723 -1.5690219089435962 1.2393469403651338 -1.5521989204868092 1.2424671916201804 C -1.5511835920669217 1.2555838547029594 -1.544686682959 1.2676650422680826 -1.5343036203311047 1.2757440120472419 L -1.5033999487459098 1.2757440120472419 C -1.4829205531846172 1.2752342245182484 -1.4630827867546443 1.27617469461484 -1.4446776990699464 1.287557019615644 C -1.4324397590719729 1.293823991215874 -1.418100809852092 1.2945377380185603 -1.4053010071752725 1.2895170647702228 C -1.3963885148580404 1.2868802327237043 -1.386966235011815 1.285816710464942 -1.3777724806096208 1.28407640131424 C -1.373887548061084 1.2827755641712908 -1.3694313019024678 1.2795849973950038 -1.3661264724041646 1.2805606252522155 C -1.3522567358394784 1.2844807155613727 -1.3398899935413073 1.280050837723222 -1.3264509395442188 1.2772997429546875 C -1.3078436947359544 1.2734587576069258 -1.28994839458025 1.264115582722096 -1.2700315231888815 1.2676313587841204 C -1.2660059595978634 1.274873857471891 -1.2638789150803387 1.283074405136563 -1.2556607885353566 1.2872757575306821 L -1.2229552817183742 1.2809649394993485 C -1.2223972299760402 1.273205755892612 -1.2195047858724055 1.2657969319068199 -1.2146580502119961 1.2597120732044105 C -1.2098364319099302 1.253651128496958 -1.2032807952377977 1.2492050699494404 -1.1958662271604754 1.246967384979572 C -1.1810560204991973 1.2419661935313424 -1.17064053391545 1.2239829989740871 -1.15191902638517 1.2315946541483702 C -1.1415035398014224 1.2243521554605996 -1.1396138101680844 1.2089091091081574 -1.1249002873485119 1.2061052776986927 C -1.1224114274102885 1.2089193333804227 -1.1195313178502808 1.2113613584441498 -1.1163481620776374 1.213356565826618 C -1.1019686379839575 1.2206078539545435 -1.092845199103004 1.2169778151705033 -1.0875979033304324 1.202404923393412 C -1.0863058556276384 1.1984936225244098 -1.0866662226739963 1.1932726950723036 -1.084222758310889 1.1907413363076458 C -1.0800601563439756 1.1874631738765415 -1.075463548725452 1.1847773825524623 -1.0705639683099242 1.1827605246468507 C -1.0608955841393568 1.1800797453995568 -1.051016253405068 1.1777593331986207 -1.0418137095627191 1.174498450901093 C -1.0373476576786063 1.1725024565552606 -1.0330878758253224 1.1700737626859041 -1.0290953896583455 1.1672471627731675 C -1.0148130909531659 1.1685358296890616 -1.0004764914424604 1.165452096717548 -0.987987178053125 1.1584049859771763 C -0.9631921673756972 1.1598552436027612 -0.9404099384937786 1.1511536978492507 -0.9174782891292244 1.143902409721325 C -0.9128851522893675 1.1426326657955401 -0.9086252903510331 1.1403737390071136 -0.9049972841090378 1.1372839612845642 C -0.9013605979099474 1.1341816967251783 -0.8984347552950479 1.1303325349244295 -0.8964187905176979 1.1259983201254657 C -0.8938346951121099 1.1255676375578678 -0.8911451264246614 1.1252775860327509 -0.8884467682970574 1.1250578500288744 C -0.870867887986935 1.1280989963225256 -0.8552402633912365 1.119116188484053 -0.8385666954170853 1.1166463558004809 C -0.8162106907967138 1.1184289008675525 -0.7937270059049192 1.1155926356277093 -0.7725140526518013 1.1083139665334827 L -0.7477893574956143 1.1083139665334827 C -0.7295800685252677 1.110223514575356 -0.7119083455535138 1.1014338962102617 -0.7024446357356537 1.0857602630955958 C -0.6967888209831201 1.0789807688841386 -0.6903479408751201 1.0728968958732839 -0.6832572878771552 1.0676364374958598 L -0.6667946664667259 1.0975205340230678 C -0.6640433975279454 1.0983460535342469 -0.6611852895183294 1.0987607013283882 -0.6583128567170922 1.0987510556447762 C -0.6404878720826281 1.0959208559148466 -0.6345813682984272 1.0762764571682848 -0.6188570598610226 1.0710555297161786 C -0.6081648241596227 1.0694526849960595 -0.5975623903231406 1.0672993406584899 -0.5870920231406311 1.0646040806423633 C -0.5778191637770422 1.0623539839626681 -0.5686341988150032 1.059892940719251 -0.5594228655324993 1.0573527925144384 C -0.5483466625480922 1.0559026876464621 -0.5385999943744397 1.0493213256755463 -0.5331160711484013 1.0395893339610598 C -0.5353397995076317 1.0277763263926576 -0.5382139464383369 1.0158578455423946 -0.5397257301450074 1.0033416827615875 C -0.5418910690353811 0.9949368635276069 -0.5382998775623125 0.9861052455312144 -0.5308835533490159 0.9815966078179663 C -0.5262163606266781 0.9793465111382706 -0.5191760190624743 0.9783357255204387 -0.5173038683094464 0.9747056867363982 C -0.5133097334423675 0.9653221102901614 -0.5101108511526875 0.9556196180512432 -0.5077409574207401 0.9457005342246965 L -0.5364912161679447 0.9217756781226203 L -0.5226214796032584 0.9072818913069244 C -0.5200373841976704 0.9067721037779308 -0.5154317175564185 0.9072818913069244 -0.5150713505100608 0.9055240032759121 C -0.5091121100849292 0.8895008538732357 -0.5037153938297216 0.8733370734280782 -0.4981165204509477 0.8570941880215253 C -0.4934966245603376 0.8594921745478358 -0.48868721838379603 0.8615058929041507 -0.4837369963572673 0.8631149545277421 C -0.4726007756808055 0.8658660492962762 -0.4664921147730381 0.8604781224812238 -0.4660614322054397 0.8486123782718912 C -0.46533337984062606 0.8419490327623218 -0.4680377780455496 0.8353717509591595 -0.4732424048121249 0.8311477606837848 C -0.4732424048121249 0.8109935744082295 -0.4732424048121249 0.8109935744082295 -0.4576499379770467 0.8061330140024808 L -0.42652653038797483 0.8085237417246575 C -0.4228198341210643 0.7992113417241046 -0.4196302701073402 0.7897013353133592 -0.4169724089394238 0.780037166182104 C -0.4165891831987094 0.7782320075039558 -0.4165891831987094 0.7763665036436498 -0.4169724089394238 0.7745613449655011 C -0.4173516699107327 0.7727592646093318 -0.4180965439335611 0.7710541313040618 -0.4191609795380338 0.7695513640771163 C -0.4202322996576766 0.7680596933219656 -0.4216034458956126 0.766808297847168 -0.4231865431290516 0.7658773780923007 C -0.42473423305248503 0.7649257924202583 -0.4264654374347421 0.7643117839455823 -0.4282668395386766 0.7640755428605132 Z" fill="#ffffff" transform="matrix(1,0,0,1,0,0)" fill-rule="nonzero"></path><path d=" M -0.40922012272265906 0.8348393255489104 C -0.41082804934716055 0.8345237793095015 -0.41248643168887433 0.834574852678721 -0.4140718936882526 0.8349887460315465 C -0.41729160746067606 0.835840102661699 -0.4199537368635051 0.8381016203582773 -0.4213143923760234 0.8411413541400893 C -0.4219988205549694 0.8426436799677706 -0.42233532132582097 0.8442811167545051 -0.42229880967338995 0.8459315990245977 C -0.42261809878130174 0.848614622688891 -0.42182255839464244 0.8513111418535634 -0.4200980436305053 0.8533911924168579 C -0.41837352886636814 0.8554712429801525 -0.41587109756790386 0.8567526241524497 -0.4131753707924366 0.8569359780987339 C -0.4099161239518534 0.8575919770185013 -0.4065355170435969 0.8567282238658656 -0.4039904058303978 0.8545891975773329 C -0.4014359272394772 0.8524375205779322 -0.39998108161512946 0.8492536344776412 -0.400026368320465 0.8459140201442875 C -0.399839493502806 0.843229961739556 -0.40069238047374744 0.8405768852948933 -0.4024083066024866 0.838504522093571 C -0.40411777140780814 0.8364457560793331 -0.4065601661738214 0.8351315901213622 -0.40922012272265884 0.8348393255489104 Z" fill="#ffffff" transform="matrix(1,0,0,1,0,0)" fill-rule="nonzero"></path><path d=" M -0.4157682556381799 0.7223169126838177 C -0.4146168389778666 0.7223169126838177 -0.4121733746147598 0.7183352962935751 -0.4126040571823577 0.7172454057143475 C -0.4133183747041391 0.7146643457873322 -0.4150033978004781 0.7124596426706272 -0.41730640766531546 0.7110927976058047 C -0.419590584763351 0.7097411376198662 -0.4223121042792519 0.7093343287930396 -0.424891694519133 0.7099589598258017 C -0.4256827441330886 0.7109785348837888 -0.42726484336099957 0.7122090565054974 -0.42705389679727834 0.7130088955596079 C -0.4266793030571834 0.7156976519146868 -0.4253084468584645 0.7181476260364242 -0.42321291144951645 0.7198734483207108 C -0.4211331958778024 0.7216064871523938 -0.41847045809047967 0.722480443592625 -0.4157682556381799 0.7223169126838176 Z" fill="#ffffff" transform="matrix(1,0,0,1,0,0)" fill-rule="nonzero"></path><path d=" M -1.4242526309781927 1.0654116603966106 L -1.4242526309781927 0.94057539169428 C -1.4109367623166107 0.9439043588596755 -1.395956410072331 0.9455688424423732 -1.3793115742453534 0.9455688424423732 C -1.3518475951308409 0.9455688424423732 -1.3314576712427935 0.938702847663745 -1.3181418025812115 0.9249708581064886 C -1.3048259339196295 0.9112388685492323 -1.2981679995888387 0.8902247633176732 -1.2981679995888387 0.8619285424118117 L -1.2981679995888387 0.19155777948029606 L -1.1608481040162748 0.19155777948029606 L -1.1608481040162748 0.8581834543507417 C -1.1608481040162748 0.9297562484067446 -1.1772848793954152 0.9830197230530724 -1.2101584301536956 1.017973878289725 C -1.2430319809119759 1.0529280335263775 -1.2931745488407453 1.070405111144704 -1.360586133940004 1.070405111144704 C -1.38555338768047 1.070405111144704 -1.4067755533598663 1.0687406275620062 -1.4242526309781927 1.0654116603966106 Z" fill="NA" transform="matrix(1,0,0,1,0,0)" fill-rule="nonzero"></path></mask></defs></svg>